<svg id="visual" viewBox="0 0 960 300" width="960" height="300" xmlns="http://www.w3.org/2000/svg" xmlns:xlink="http://www.w3.org/1999/xlink" version="1.1"><rect x="0" y="0" width="960" height="300" fill="#aad8d3"></rect><path d="M0 57L22.8 61.7C45.7 66.3 91.3 75.7 137 76.7C182.7 77.7 228.3 70.3 274 64.5C319.7 58.7 365.3 54.3 411.2 60C457 65.7 503 81.3 548.8 91.7C594.7 102 640.3 107 686 101.7C731.7 96.3 777.3 80.7 823 68.2C868.7 55.7 914.3 46.3 937.2 41.7L960 37L960 301L937.2 301C914.3 301 868.7 301 823 301C777.3 301 731.7 301 686 301C640.3 301 594.7 301 548.8 301C503 301 457 301 411.2 301C365.3 301 319.7 301 274 301C228.3 301 182.7 301 137 301C91.3 301 45.7 301 22.8 301L0 301Z" fill="#8fc6c9"></path><path d="M0 87L22.8 91.5C45.7 96 91.3 105 137 114.7C182.7 124.3 228.3 134.7 274 139C319.7 143.3 365.3 141.7 411.2 144.2C457 146.7 503 153.3 548.8 144.8C594.7 136.3 640.3 112.7 686 104.7C731.7 96.7 777.3 104.3 823 105.7C868.7 107 914.3 102 937.2 99.5L960 97L960 301L937.2 301C914.3 301 868.7 301 823 301C777.3 301 731.7 301 686 301C640.3 301 594.7 301 548.8 301C503 301 457 301 411.2 301C365.3 301 319.7 301 274 301C228.3 301 182.7 301 137 301C91.3 301 45.7 301 22.8 301L0 301Z" fill="#7ca9b2"></path><path d="M0 159L22.8 156.8C45.7 154.7 91.3 150.3 137 154.2C182.7 158 228.3 170 274 172.5C319.7 175 365.3 168 411.2 163.3C457 158.7 503 156.3 548.8 153.3C594.7 150.3 640.3 146.7 686 149.5C731.7 152.3 777.3 161.7 823 168C868.7 174.3 914.3 177.7 937.2 179.3L960 181L960 301L937.2 301C914.3 301 868.7 301 823 301C777.3 301 731.7 301 686 301C640.3 301 594.7 301 548.8 301C503 301 457 301 411.2 301C365.3 301 319.7 301 274 301C228.3 301 182.7 301 137 301C91.3 301 45.7 301 22.8 301L0 301Z" fill="#6b8c98"></path><path d="M0 223L22.8 220.7C45.7 218.3 91.3 213.7 137 206C182.7 198.3 228.3 187.7 274 180.3C319.7 173 365.3 169 411.2 175.8C457 182.7 503 200.3 548.8 200.8C594.7 201.3 640.3 184.7 686 185.3C731.7 186 777.3 204 823 203C868.7 202 914.3 182 937.2 172L960 162L960 301L937.2 301C914.3 301 868.7 301 823 301C777.3 301 731.7 301 686 301C640.3 301 594.7 301 548.8 301C503 301 457 301 411.2 301C365.3 301 319.7 301 274 301C228.3 301 182.7 301 137 301C91.3 301 45.7 301 22.8 301L0 301Z" fill="#5b707d"></path><path d="M0 208L22.8 205.2C45.7 202.3 91.3 196.7 137 197.7C182.7 198.7 228.3 206.3 274 212.7C319.7 219 365.3 224 411.2 230.3C457 236.7 503 244.3 548.8 246.8C594.7 249.3 640.3 246.7 686 242.3C731.7 238 777.3 232 823 226.5C868.7 221 914.3 216 937.2 213.5L960 211L960 301L937.2 301C914.3 301 868.7 301 823 301C777.3 301 731.7 301 686 301C640.3 301 594.7 301 548.8 301C503 301 457 301 411.2 301C365.3 301 319.7 301 274 301C228.3 301 182.7 301 137 301C91.3 301 45.7 301 22.8 301L0 301Z" fill="#4a5661"></path><path d="M0 271L22.8 267.3C45.7 263.7 91.3 256.3 137 250.8C182.7 245.3 228.3 241.7 274 238.8C319.7 236 365.3 234 411.2 237.5C457 241 503 250 548.8 251.3C594.7 252.7 640.3 246.3 686 249.5C731.7 252.7 777.3 265.3 823 268.7C868.7 272 914.3 266 937.2 263L960 260L960 301L937.2 301C914.3 301 868.7 301 823 301C777.3 301 731.7 301 686 301C640.3 301 594.7 301 548.8 301C503 301 457 301 411.2 301C365.3 301 319.7 301 274 301C228.3 301 182.7 301 137 301C91.3 301 45.7 301 22.8 301L0 301Z" fill="#393e46"></path></svg>